<?xml version="1.0" encoding="UTF-8" standalone="no"?>
<!DOCTYPE svg PUBLIC "-//W3C//DTD SVG 1.1//EN"
 "http://www.w3.org/Graphics/SVG/1.1/DTD/svg11.dtd">
<!-- Generated by graphviz version 3.0.0 (20220226.1711)
 -->
<!-- Title: dependencies Pages: 1 -->
<svg width="328pt" height="247pt"
 viewBox="0.00 0.00 328.00 246.80" xmlns="http://www.w3.org/2000/svg" xmlns:xlink="http://www.w3.org/1999/xlink">
<g id="graph0" class="graph" transform="scale(1 1) rotate(0) translate(4 242.8)">
<title>dependencies</title>
<polygon fill="white" stroke="transparent" points="-4,4 -4,-242.8 324,-242.8 324,4 -4,4"/>
<text text-anchor="middle" x="160" y="-8.2" font-family="sans-serif" font-size="14.00">dependencies</text>
<g id="clust1" class="cluster">
<title>cluster_CommentsModule</title>
<polygon fill="none" stroke="black" stroke-dasharray="1,5" points="8,-32.8 8,-230.8 312,-230.8 312,-32.8 8,-32.8"/>
</g>
<g id="clust4" class="cluster">
<title>cluster_CommentsModule_exports</title>
<polygon fill="none" stroke="black" points="101,-170.8 101,-222.8 239,-222.8 239,-170.8 101,-170.8"/>
</g>
<g id="clust3" class="cluster">
<title>cluster_CommentsModule_imports</title>
<polygon fill="none" stroke="black" points="204,-40.8 204,-92.8 304,-92.8 304,-40.8 204,-40.8"/>
</g>
<g id="clust6" class="cluster">
<title>cluster_CommentsModule_providers</title>
<polygon fill="none" stroke="black" points="16,-40.8 16,-92.8 196,-92.8 196,-40.8 16,-40.8"/>
</g>
<!-- PostModule -->
<g id="node1" class="node">
<title>PostModule</title>
<polygon fill="#8dd3c7" stroke="black" points="295.68,-84.8 292.68,-88.8 271.68,-88.8 268.68,-84.8 212.32,-84.8 212.32,-48.8 295.68,-48.8 295.68,-84.8"/>
<text text-anchor="middle" x="254" y="-62.6" font-family="Times,serif" font-size="14.00">PostModule</text>
</g>
<!-- CommentsModule -->
<g id="node2" class="node">
<title>CommentsModule</title>
<polygon fill="#8dd3c7" stroke="black" points="230.22,-149.8 227.22,-153.8 206.22,-153.8 203.22,-149.8 109.78,-149.8 109.78,-113.8 230.22,-113.8 230.22,-149.8"/>
<text text-anchor="middle" x="170" y="-127.6" font-family="Times,serif" font-size="14.00">CommentsModule</text>
</g>
<!-- PostModule&#45;&gt;CommentsModule -->
<g id="edge1" class="edge">
<title>PostModule&#45;&gt;CommentsModule</title>
<path fill="none" stroke="black" d="M221.14,-84.91C221.14,-84.91 221.14,-103.79 221.14,-103.79"/>
<polygon fill="black" stroke="black" points="217.64,-103.79 221.14,-113.79 224.64,-103.79 217.64,-103.79"/>
</g>
<!-- CommentsService  -->
<g id="node3" class="node">
<title>CommentsService </title>
<polygon fill="#fb8072" stroke="black" points="231.15,-214.8 108.85,-214.8 108.85,-178.8 231.15,-178.8 231.15,-214.8"/>
<text text-anchor="middle" x="170" y="-192.6" font-family="Times,serif" font-size="14.00">CommentsService </text>
</g>
<!-- CommentsModule&#45;&gt;CommentsService  -->
<g id="edge2" class="edge">
<title>CommentsModule&#45;&gt;CommentsService </title>
<path fill="none" stroke="black" stroke-dasharray="5,2" d="M170,-149.91C170,-149.91 170,-168.79 170,-168.79"/>
<polygon fill="black" stroke="black" points="166.5,-168.79 170,-178.79 173.5,-168.79 166.5,-168.79"/>
</g>
<!-- CommentsService -->
<g id="node4" class="node">
<title>CommentsService</title>
<ellipse fill="#fdb462" stroke="black" cx="106" cy="-66.8" rx="81.68" ry="18"/>
<text text-anchor="middle" x="106" y="-62.6" font-family="Times,serif" font-size="14.00">CommentsService</text>
</g>
<!-- CommentsService&#45;&gt;CommentsModule -->
<g id="edge3" class="edge">
<title>CommentsService&#45;&gt;CommentsModule</title>
<path fill="none" stroke="black" d="M148.87,-82.2C148.87,-82.2 148.87,-103.74 148.87,-103.74"/>
<polygon fill="black" stroke="black" points="145.37,-103.74 148.87,-113.74 152.37,-103.74 145.37,-103.74"/>
</g>
</g>
</svg>
