<?xml version="1.0" encoding="UTF-8" standalone="no"?>
<!DOCTYPE svg PUBLIC "-//W3C//DTD SVG 1.1//EN"
 "http://www.w3.org/Graphics/SVG/1.1/DTD/svg11.dtd">
<!-- Generated by graphviz version 3.0.0 (20220226.1711)
 -->
<!-- Title: dependencies Pages: 1 -->
<svg width="630pt" height="174pt"
 viewBox="0.00 0.00 630.00 173.80" xmlns="http://www.w3.org/2000/svg" xmlns:xlink="http://www.w3.org/1999/xlink">
<g id="graph0" class="graph" transform="scale(1 1) rotate(0) translate(4 169.8)">
<title>dependencies</title>
<polygon fill="white" stroke="transparent" points="-4,4 -4,-169.8 626,-169.8 626,4 -4,4"/>
<text text-anchor="middle" x="311" y="-8.2" font-family="sans-serif" font-size="14.00">dependencies</text>
<g id="clust1" class="cluster">
<title>cluster_AppModule</title>
<polygon fill="none" stroke="black" stroke-dasharray="1,5" points="8,-32.8 8,-157.8 614,-157.8 614,-32.8 8,-32.8"/>
</g>
<g id="clust3" class="cluster">
<title>cluster_AppModule_imports</title>
<polygon fill="none" stroke="black" points="154,-40.8 154,-92.8 606,-92.8 606,-40.8 154,-40.8"/>
</g>
<g id="clust6" class="cluster">
<title>cluster_AppModule_providers</title>
<polygon fill="none" stroke="black" points="16,-40.8 16,-92.8 146,-92.8 146,-40.8 16,-40.8"/>
</g>
<!-- AuthModule -->
<g id="node1" class="node">
<title>AuthModule</title>
<polygon fill="#8dd3c7" stroke="black" points="597.55,-84.8 594.55,-88.8 573.55,-88.8 570.55,-84.8 510.45,-84.8 510.45,-48.8 597.55,-48.8 597.55,-84.8"/>
<text text-anchor="middle" x="554" y="-62.6" font-family="Times,serif" font-size="14.00">AuthModule</text>
</g>
<!-- AppModule -->
<g id="node5" class="node">
<title>AppModule</title>
<polygon fill="#8dd3c7" stroke="black" points="350.66,-149.8 347.66,-153.8 326.66,-153.8 323.66,-149.8 267.34,-149.8 267.34,-113.8 350.66,-113.8 350.66,-149.8"/>
<text text-anchor="middle" x="309" y="-127.6" font-family="Times,serif" font-size="14.00">AppModule</text>
</g>
<!-- AuthModule&#45;&gt;AppModule -->
<g id="edge1" class="edge">
<title>AuthModule&#45;&gt;AppModule</title>
<path fill="none" stroke="black" d="M554,-85.08C554,-106.12 554,-137.8 554,-137.8 554,-137.8 360.84,-137.8 360.84,-137.8"/>
<polygon fill="black" stroke="black" points="360.84,-134.3 350.84,-137.8 360.84,-141.3 360.84,-134.3"/>
</g>
<!-- CommentsModule -->
<g id="node2" class="node">
<title>CommentsModule</title>
<polygon fill="#8dd3c7" stroke="black" points="492.22,-84.8 489.22,-88.8 468.22,-88.8 465.22,-84.8 371.78,-84.8 371.78,-48.8 492.22,-48.8 492.22,-84.8"/>
<text text-anchor="middle" x="432" y="-62.6" font-family="Times,serif" font-size="14.00">CommentsModule</text>
</g>
<!-- CommentsModule&#45;&gt;AppModule -->
<g id="edge2" class="edge">
<title>CommentsModule&#45;&gt;AppModule</title>
<path fill="none" stroke="black" d="M432,-84.82C432,-102.17 432,-125.8 432,-125.8 432,-125.8 360.99,-125.8 360.99,-125.8"/>
<polygon fill="black" stroke="black" points="360.99,-122.3 350.99,-125.8 360.99,-129.3 360.99,-122.3"/>
</g>
<!-- LikesModule -->
<g id="node3" class="node">
<title>LikesModule</title>
<polygon fill="#8dd3c7" stroke="black" points="354.16,-84.8 351.16,-88.8 330.16,-88.8 327.16,-84.8 263.84,-84.8 263.84,-48.8 354.16,-48.8 354.16,-84.8"/>
<text text-anchor="middle" x="309" y="-62.6" font-family="Times,serif" font-size="14.00">LikesModule</text>
</g>
<!-- LikesModule&#45;&gt;AppModule -->
<g id="edge3" class="edge">
<title>LikesModule&#45;&gt;AppModule</title>
<path fill="none" stroke="black" d="M309,-84.91C309,-84.91 309,-103.79 309,-103.79"/>
<polygon fill="black" stroke="black" points="305.5,-103.79 309,-113.79 312.5,-103.79 305.5,-103.79"/>
</g>
<!-- PostModule -->
<g id="node4" class="node">
<title>PostModule</title>
<polygon fill="#8dd3c7" stroke="black" points="245.68,-84.8 242.68,-88.8 221.68,-88.8 218.68,-84.8 162.32,-84.8 162.32,-48.8 245.68,-48.8 245.68,-84.8"/>
<text text-anchor="middle" x="204" y="-62.6" font-family="Times,serif" font-size="14.00">PostModule</text>
</g>
<!-- PostModule&#45;&gt;AppModule -->
<g id="edge4" class="edge">
<title>PostModule&#45;&gt;AppModule</title>
<path fill="none" stroke="black" d="M204,-84.82C204,-102.17 204,-125.8 204,-125.8 204,-125.8 257.2,-125.8 257.2,-125.8"/>
<polygon fill="black" stroke="black" points="257.2,-129.3 267.2,-125.8 257.2,-122.3 257.2,-129.3"/>
</g>
<!-- AppService -->
<g id="node6" class="node">
<title>AppService</title>
<ellipse fill="#fdb462" stroke="black" cx="81" cy="-66.8" rx="56.75" ry="18"/>
<text text-anchor="middle" x="81" y="-62.6" font-family="Times,serif" font-size="14.00">AppService</text>
</g>
<!-- AppService&#45;&gt;AppModule -->
<g id="edge5" class="edge">
<title>AppService&#45;&gt;AppModule</title>
<path fill="none" stroke="black" d="M81,-85.08C81,-106.12 81,-137.8 81,-137.8 81,-137.8 257.18,-137.8 257.18,-137.8"/>
<polygon fill="black" stroke="black" points="257.18,-141.3 267.18,-137.8 257.18,-134.3 257.18,-141.3"/>
</g>
</g>
</svg>
